<svg xmlns="http://www.w3.org/2000/svg" version="1.1" x="0" y="0" viewBox="0 0 468.4 468.4" xml:space="preserve"><path fill="white" d="M369.9 125.7c0 0-2.6-92.1-2.7-93.2 -0.2-1.7-0.6-3.4-1.3-5 -1.8-4.1-5.1-7.3-9.3-8.9l-27.3-10.6c-4.2-1.6-8.8-1.5-12.9 0.3 -4.1 1.8-7.3 5.1-8.9 9.3L288.7 65.8c-2.9-0.7-5.8-1.3-8.7-1.8V45.8c0-25.3-20.5-45.8-45.8-45.8s-45.8 20.6-45.8 45.8v18.2c-2.9 0.5-5.8 1.1-8.7 1.8L161 17.5c-1.6-4.2-4.8-7.5-8.9-9.3 -4.1-1.8-8.7-1.9-12.9-0.3l-27.3 10.6c-4.2 1.6-7.5 4.8-9.3 8.9 -0.7 1.6-1.1 3.2-1.3 4.8 -0.1 1.2-2.7 93.5-2.7 93.5 -11.6 19.4-18.3 42.1-18.3 66.4v248c0 15.7 12.7 28.4 28.4 28.4h251.2c15.7 0 28.4-12.7 28.4-28.4V192.1C388.2 167.8 381.5 145.1 369.9 125.7zM354.3 104.6c-3-3.3-6.1-6.4-9.4-9.3l8.5-21.9L354.3 104.6zM321.4 22.9c0.4-1 1.5-1.4 2.4-1.1l27.3 10.6c0.6 0.2 0.9 0.7 1 1 0.1 0.3 0.3 0.8 0 1.4L332.5 85.5c-9-6.3-18.9-11.5-29.4-15.4L321.4 22.9zM234.2 15c15.3 0 28.1 11.2 30.4 25.9 -8.2-7.3-18.9-11.6-30.4-11.6 -11.3 0-22 4.1-30.4 11.5C206.2 26.2 218.9 15 234.2 15zM262.2 62.3c-1.3 0-54.7 0-56 0 1.5-3.3 3.6-6.3 6.2-9 5.8-5.8 13.6-9 21.8-9C246.5 44.3 257.3 51.6 262.2 62.3zM116.3 33.4c0.1-0.3 0.4-0.8 1-1l27.3-10.6c1-0.4 2 0.1 2.4 1.1l18.3 47.2c-10.5 3.9-20.4 9.1-29.4 15.4l-19.7-50.7C116 34.3 116.1 33.8 116.3 33.4zM115.1 73.3l8.5 21.9c-3.3 3-6.5 6.1-9.4 9.3L115.1 73.3zM373.2 440c0 7.4-6 13.4-13.4 13.4H108.6c-7.4 0-13.4-6-13.4-13.4V192.1c0-63.3 51.5-114.8 114.9-114.8h48.3c63.3 0 114.9 51.5 114.9 114.9V440zM132.5 253.7c-12.1 0-22 9.9-22 22v141.3c0 12.1 9.9 22 22 22h203.5c12.1 0 22-9.8 22-22V275.7c0-12.1-9.8-22-22-22H132.5zM336 424H132.5c-3.8 0-7-3.1-7-7v-94.3h188.8v17.1h15v-17.1h13.6v94.3C342.9 420.9 339.8 424 336 424zM342.9 275.7v32.1H125.5v-32.1c0-3.8 3.1-7 7-7h203.5C339.8 268.7 342.9 271.8 342.9 275.7zM281.8 108h-95.2v42.8h95.2V108zM266.8 135.9h-65.2v-12.8h65.2V135.9z"/></svg>