<!--?xml version="1.0" standalone="no"?-->

<svg version="1.0" xmlns="http://www.w3.org/2000/svg" width="300.000000pt" height="300.000000pt" viewBox="0 0 300.000000 300.000000" preserveAspectRatio="xMidYMid meet">
<g transform="translate(0.000000,300.000000) scale(0.100000,-0.100000)" fill="#0D0D0D" stroke="none">
<path d="M325 2075 c-30 -29 -30 -33 -6 -93 79 -194 92 -232 85 -244 -4 -7
-41 -64 -82 -125 l-74 -113 -53 0 c-73 0 -135 -36 -170 -97 l-26 -47 4 -240
c2 -139 9 -262 15 -291 35 -144 92 -246 199 -354 60 -61 81 -87 73 -95 -7 -7
-59 -11 -134 -11 -135 0 -156 -7 -156 -55 0 -22 8 -31 38 -46 81 -39 315 -12
424 49 l38 21 57 -27 c171 -79 390 -79 560 0 l52 24 41 -21 c123 -63 323 -80
465 -40 44 12 97 31 118 42 l38 19 52 -24 c170 -79 389 -79 559 0 l58 26 47
-25 c136 -73 406 -81 443 -13 31 57 -16 92 -100 74 -94 -20 -250 12 -332 68
-43 29 -81 33 -107 9 -23 -21 -140 -68 -155 -63 -6 2 4 13 22 23 261 148 475
373 585 614 47 104 97 264 97 311 0 57 -39 113 -100 144 -49 25 -52 25 -295
25 l-246 0 -48 53 c-26 28 -81 90 -122 137 -40 47 -92 105 -115 130 -23 25
-68 77 -101 115 -33 39 -80 91 -105 118 l-44 47 -262 0 c-245 0 -262 -1 -279
-19 -10 -11 -42 -92 -72 -180 l-54 -161 -111 0 c-61 0 -116 4 -121 8 -6 4 -68
77 -139 162 -71 85 -141 163 -155 172 -21 15 -49 18 -154 18 -123 0 -129 -1
-152 -25z m269 -122 c79 -91 166 -198 166 -205 0 -4 -50 -8 -110 -8 -97 0
-111 2 -116 18 -3 9 -21 56 -40 105 -19 48 -34 94 -34 102 0 11 13 15 55 15
47 0 58 -4 79 -27z m1199 4 c23 -24 114 -128 162 -184 l27 -33 -346 0 -346 0
0 23 c0 13 4 27 8 33 5 5 19 45 32 89 12 44 28 83 34 87 6 4 100 8 209 8 193
0 198 -1 220 -23z m321 -359 c8 -11 36 -43 61 -69 87 -91 166 -84 -888 -87
-510 -1 -927 0 -927 3 0 3 25 43 55 90 l56 85 814 0 814 0 15 -22z m-1803
-377 c29 -88 56 -166 60 -173 7 -10 167 -14 836 -18 455 -3 838 -3 850 -2 15
3 56 55 138 178 l116 174 263 0 c244 0 266 -1 287 -19 23 -18 23 -21 11 -78
-14 -67 -47 -154 -99 -257 -134 -265 -422 -509 -706 -596 -94 -29 -113 -28
-180 10 l-58 32 -51 -31 c-89 -56 -160 -75 -278 -74 -118 0 -190 19 -277 73
l-49 31 -80 -41 c-184 -93 -371 -88 -546 14 -40 23 -45 24 -76 10 -32 -13 -36
-12 -76 15 -79 54 -172 165 -215 253 -53 111 -61 165 -61 410 0 195 1 209 20
228 15 15 33 20 70 20 l49 0 52 -159z m1805 83 c-3 -9 -29 -49 -57 -90 l-51
-74 -768 0 c-602 0 -770 3 -777 13 -12 14 -53 135 -53 154 0 11 158 13 856 13
779 0 856 -1 850 -16z" id="node1" class="node" stroke-width="20"></path>
<path d="M2412 1228 c-17 -17 -15 -100 2 -124 12 -16 27 -19 106 -19 79 0 94
3 106 19 19 27 18 100 -2 120 -30 31 -64 12 -64 -36 0 -21 -6 -29 -25 -34 -39
-10 -55 1 -55 40 0 43 -39 63 -68 34z" id="node2" class="node"></path>
</g>
<g transform="translate(0.000000,300.000000) scale(0.100000,-0.100000)" fill="#A5A5A5" stroke="none">

<path d="M460 1965 c0 -8 15 -54 34 -102 19 -49 37 -96 40 -105 5 -16 19 -18
116 -18 60 0 110 4 110 8 0 4 -32 46 -71 92 -127 152 -113 140 -174 140 -42 0
-55 -4 -55 -15z" id="node5" class="node"></path>
<path d="M1364 1972 c-6 -4 -22 -43 -34 -87 -13 -44 -27 -84 -32 -89 -4 -6 -8
-20 -8 -33 l0 -23 346 0 346 0 -27 33 c-48 56 -139 160 -162 184 -22 22 -27
23 -220 23 -109 0 -203 -4 -209 -8z" id="node6" class="node"></path>
<path d="M415 1535 c-30 -47 -55 -87 -55 -90 0 -3 417 -4 927 -3 1054 3 975
-4 888 87 -25 26 -53 58 -61 69 l-15 22 -814 0 -814 0 -56 -85z" id="node7" class="node"></path>
<path d="M140 1360 c-19 -19 -20 -33 -20 -228 0 -245 8 -299 61 -410 43 -88
136 -199 215 -253 40 -27 44 -28 76 -15 31 14 36 13 76 -10 175 -102 362 -107
546 -14 l80 41 49 -31 c87 -54 159 -73 277 -73 118 -1 189 18 278 74 l51 31
58 -32 c67 -38 86 -39 180 -10 243 75 485 259 650 496 55 80 136 266 155 357
12 57 12 60 -11 78 -21 18 -43 19 -287 19 l-263 0 -116 -174 c-82 -123 -123
-175 -138 -178 -12 -1 -395 -1 -850 2 -669 4 -829 8 -836 18 -4 7 -31 85 -60
173 l-52 159 -49 0 c-37 0 -55 -5 -70 -20z m2324 -126 c10 -4 16 -18 16 -40 0
-39 16 -50 55 -40 19 5 25 13 25 34 0 48 34 67 64 36 20 -20 21 -93 2 -120
-12 -16 -27 -19 -106 -19 -107 0 -120 9 -120 85 0 61 20 81 64 64z" id="node8" class="node"></path>
<path d="M410 1307 c0 -19 41 -140 53 -154 7 -10 175 -13 777 -13 l768 0 51
74 c28 41 54 81 57 90 6 15 -71 16 -850 16 -698 0 -856 -2 -856 -13z" id="node9" class="node"></path>









</g>
</svg>
